<?xml version="1.0" encoding="utf-8"?>
<!-- Generator: Adobe Illustrator 16.0.0, SVG Export Plug-In . SVG Version: 6.00 Build 0)  -->
<!DOCTYPE svg PUBLIC "-//W3C//DTD SVG 1.1//EN" "http://www.w3.org/Graphics/SVG/1.1/DTD/svg11.dtd">
<svg version="1.1" id="Layer_1" xmlns="http://www.w3.org/2000/svg" xmlns:xlink="http://www.w3.org/1999/xlink" x="0px" y="0px"
	 width="75px" height="21px" viewBox="0 0 75 21" enable-background="new 0 0 75 21" xml:space="preserve">
<title>Group 2</title>
<desc>Created with Sketch.</desc>
<g id="Page-1">
	<g id="KaiVisi.fh8" transform="translate(-28.000000, -31.000000)">
		<g id="Group-2" transform="translate(27.948000, 27.324300)">
			<g enable-background="new    ">
				<path fill="#1A1919" d="M1.136,3.662h0.952v3.505l3.732-3.505h1.253L2.59,7.851L7.424,13H6.181L2.089,8.65V13H1.136V3.662z"/>
				<path fill="#1A1919" d="M12.697,3.662L17.052,13h-1.008l-1.469-3.072h-4.022L9.098,13H8.057l4.412-9.338H12.697z M12.579,5.646
					l-1.6,3.38h3.192L12.579,5.646z"/>
				<path fill="#1A1919" d="M18.43,3.662h0.933V13H18.43V3.662z"/>
				<path fill="#1A1919" d="M24.806,13l1.337-9.338h0.151l3.796,7.662l3.76-7.662H34L35.344,13h-0.915l-0.923-6.678L30.204,13
					h-0.238l-3.341-6.729L25.708,13H24.806z"/>
			</g>
			<g enable-background="new    ">
				<path fill="#1A1919" d="M41.058,3.662L45.412,13h-1.008l-1.469-3.072h-4.022L37.459,13h-1.041l4.412-9.338H41.058z
					 M40.941,5.646l-1.601,3.38h3.192L40.941,5.646z"/>
			</g>
			<g enable-background="new    ">
				<path fill="#1A1919" d="M45.348,4.576V3.662h5.116v0.914h-2.082V13H47.43V4.576H45.348z"/>
			</g>
			<g enable-background="new    ">
				<path fill="#1A1919" d="M52.032,4.564V3.662h4.926l-3.9,8.424h3.704V13h-5.147l3.934-8.436H52.032z"/>
				<path fill="#1A1919" d="M62.515,3.662L66.868,13h-1.008l-1.469-3.072H60.37L58.915,13h-1.041l4.412-9.338H62.515z M62.397,5.646
					l-1.601,3.38h3.193L62.397,5.646z"/>
				<path fill="#1A1919" d="M68.381,3.662h0.952v3.505l3.732-3.505h1.254l-4.484,4.189L74.669,13h-1.244l-4.092-4.35V13h-0.952
					V3.662z"/>
			</g>
			<g enable-background="new    ">
				<path fill="#1A1919" d="M2.718,18.648l2.345,5.027H4.52l-0.791-1.654H1.563L0.78,23.676H0.219l2.375-5.027H2.718z M2.655,19.716
					l-0.861,1.82h1.719L2.655,19.716z"/>
			</g>
			<g enable-background="new    ">
				<path fill="#1A1919" d="M6.774,18.648h1.001c0.558,0,0.937,0.022,1.135,0.068c0.298,0.068,0.541,0.215,0.728,0.439
					s0.28,0.501,0.28,0.83c0,0.273-0.064,0.515-0.193,0.722c-0.129,0.208-0.313,0.364-0.552,0.471s-0.57,0.16-0.991,0.163
					l1.808,2.334H9.369l-1.808-2.334H7.277v2.334H6.774V18.648z M7.277,19.141v1.709l0.866,0.007c0.335,0,0.583-0.032,0.745-0.096
					c0.161-0.064,0.286-0.166,0.376-0.307c0.09-0.14,0.135-0.297,0.135-0.47c0-0.169-0.046-0.322-0.137-0.46
					c-0.091-0.138-0.211-0.236-0.36-0.296c-0.148-0.059-0.395-0.088-0.739-0.088H7.277z"/>
				<path fill="#1A1919" d="M16.378,19.581l-0.396,0.304c-0.219-0.284-0.481-0.5-0.788-0.647c-0.307-0.146-0.644-0.22-1.01-0.22
					c-0.401,0-0.772,0.096-1.114,0.288s-0.607,0.451-0.794,0.776c-0.188,0.324-0.282,0.689-0.282,1.096
					c0,0.612,0.21,1.124,0.631,1.534c0.42,0.41,0.951,0.615,1.591,0.615c0.704,0,1.293-0.275,1.767-0.827l0.396,0.301
					c-0.25,0.319-0.563,0.565-0.938,0.74c-0.375,0.174-0.794,0.262-1.256,0.262c-0.879,0-1.573-0.293-2.082-0.879
					c-0.426-0.494-0.639-1.092-0.639-1.791c0-0.736,0.258-1.355,0.774-1.857c0.517-0.503,1.163-0.754,1.94-0.754
					c0.469,0,0.893,0.093,1.271,0.278S16.136,19.246,16.378,19.581z"/>
			</g>
			<g enable-background="new    ">
				<path fill="#1A1919" d="M18.09,18.648h0.502v2.108h2.56v-2.108h0.502v5.027h-0.502v-2.427h-2.56v2.427H18.09V18.648z"/>
				<path fill="#1A1919" d="M23.906,18.648h0.502v5.027h-0.502V18.648z"/>
				<path fill="#1A1919" d="M26.16,19.141v-0.492h2.755v0.492h-1.121v4.535h-0.513v-4.535H26.16z"/>
				<path fill="#1A1919" d="M30.741,18.648h2.881v0.492h-2.379v1.575h2.358v0.492h-2.358v1.976h2.358v0.492h-2.861V18.648z"/>
				<path fill="#1A1919" d="M35.59,18.648h0.513v1.887l2.01-1.887h0.676l-2.416,2.256l2.603,2.771h-0.67l-2.203-2.342v2.342H35.59
					V18.648z"/>
				<path fill="#1A1919" d="M40.325,19.141v-0.492h2.756v0.492H41.96v4.535h-0.514v-4.535H40.325z"/>
			</g>
			<g enable-background="new    ">
				<path fill="#1A1919" d="M55.663,18.648h0.514v1.887l2.01-1.887h0.675l-2.415,2.256l2.603,2.771H58.38l-2.203-2.342v2.342h-0.514
					V18.648z"/>
			</g>
			<g enable-background="new    ">
				<path fill="#1A1919" d="M62.798,18.521c0.762,0,1.399,0.254,1.912,0.762c0.514,0.509,0.77,1.134,0.77,1.877
					c0,0.736-0.256,1.36-0.768,1.873s-1.136,0.77-1.873,0.77c-0.744,0-1.374-0.256-1.887-0.766c-0.514-0.511-0.77-1.129-0.77-1.854
					c0-0.482,0.116-0.931,0.35-1.343c0.234-0.412,0.553-0.735,0.957-0.969C61.892,18.639,62.329,18.521,62.798,18.521z
					 M62.822,19.01c-0.373,0-0.725,0.098-1.059,0.291c-0.333,0.194-0.594,0.455-0.78,0.783c-0.187,0.329-0.28,0.694-0.28,1.099
					c0,0.598,0.207,1.102,0.621,1.514c0.414,0.411,0.913,0.617,1.498,0.617c0.39,0,0.751-0.095,1.083-0.284s0.591-0.448,0.777-0.776
					c0.186-0.328,0.278-0.693,0.278-1.095c0-0.398-0.093-0.76-0.278-1.082c-0.187-0.323-0.448-0.581-0.786-0.775
					C63.558,19.107,63.2,19.01,62.822,19.01z M62.134,17.469c0.109,0,0.203,0.039,0.28,0.116s0.116,0.171,0.116,0.28
					s-0.039,0.203-0.116,0.28s-0.171,0.116-0.28,0.116s-0.203-0.039-0.28-0.116s-0.116-0.171-0.116-0.28s0.039-0.203,0.116-0.28
					S62.025,17.469,62.134,17.469z M63.529,17.469c0.109,0,0.203,0.039,0.28,0.116s0.116,0.171,0.116,0.28s-0.039,0.203-0.116,0.28
					s-0.171,0.116-0.28,0.116s-0.203-0.039-0.28-0.116s-0.116-0.171-0.116-0.28s0.039-0.203,0.116-0.28S63.419,17.469,63.529,17.469
					z"/>
			</g>
			<g enable-background="new    ">
				<path fill="#1A1919" d="M66.899,18.648h0.503v4.542h1.934v0.485h-2.437V18.648z"/>
			</g>
			<g enable-background="new    ">
				<path fill="#1A1919" d="M71.04,23.676v-5.027h0.109l3.346,3.854v-3.854h0.496v5.027h-0.113l-3.318-3.808v3.808H71.04z"/>
			</g>
			<g enable-background="new    ">
				<path fill="#1A1919" d="M48.566,20.601c0.166,0,0.308,0.059,0.425,0.176s0.176,0.261,0.176,0.43
					c0,0.166-0.059,0.309-0.176,0.428c-0.117,0.118-0.259,0.178-0.425,0.178s-0.308-0.06-0.425-0.178
					c-0.117-0.119-0.176-0.262-0.176-0.428c0-0.169,0.059-0.312,0.176-0.43S48.4,20.601,48.566,20.601z"/>
			</g>
		</g>
	</g>
</g>
</svg>
